<svg xmlns="http://www.w3.org/2000/svg" viewBox="0 0 117.92 104.49">
  <defs>
    <style>
      #leopards_2 .cls-1 {
        fill: #03f;
      }

      #leopards_2 .cls-2 {
        fill: #fff;
      }

      #leopards_2 .cls-3 {
        fill: none;
      }

      #leopards_2 .cls-3, .cls-4 {
        stroke: #000;
        stroke-miterlimit: 10;
      }
    </style>
  </defs>
  <g id="leopards_2" data-name="leopards 2">
    <path class="cls-1" d="M95.44,71.1s-12,7-11,13-8,18-15,19-10,3-22-1c0,0-7-4-11-15,0,0-1-8-8-12a28.41,28.41,0,0,1-14-21c-2-15,3.5-22.5,3.5-22.5s-10-4-6-26c0,0,1.5-6.5,8.5-4.5a36.5,36.5,0,0,1,11,5S39-.47,55.79,0c1,0,1.92.05,2.89,0,5-.08,23.72.12,29.76,7,0,0,4-3,9-6,0,0,9-4,12,4,0,0,3,16-6,27,0,0,4,12,2,21S98.44,69.1,95.44,71.1Z"/>
    <path d="M16.44,20.1s2,8,9,4,8-6,8-6,2-3-2-7a30.23,30.23,0,0,0-9-6s-6-2-6,4C16.44,9.1,15.44,12.1,16.44,20.1Z"/>
    <path d="M88.44,10.1s6-4,9-5,8-2,8,6-2,11-2,11-2,4-8,2a19.69,19.69,0,0,1-9-6S84.44,14.1,88.44,10.1Z"/>
    <path d="M43.44,57.1s-9-1-10-6,3-6,3-6,8-3,11,4c0,0,3,4,1,12a3.1,3.1,0,0,1-2-1C45.44,59.1,46.44,58.1,43.44,57.1Z"/>
    <circle class="cls-2" cx="41.44" cy="51.1" r="5"/>
    <circle cx="41.57" cy="51.1" r="2.88"/>
    <path d="M77,57.1s9-1,10-6-3-6-3-6-8-3-11,4c0,0-3,4-1,12a3.1,3.1,0,0,0,2-1C75,59.1,74,58.1,77,57.1Z"/>
    <circle class="cls-2" cx="78.97" cy="51.1" r="5"/>
    <circle cx="78.85" cy="51.1" r="2.88"/>
    <path d="M51.44,79.1s-4-6,2-7,14,0,14,0,5,2,2,6a12.38,12.38,0,0,1-3,2,3.7,3.7,0,0,0-2,3c0,2-2,4-2,4a2.77,2.77,0,0,1-4,0s-2-2-2-4a3,3,0,0,0-.58-1.77A3.43,3.43,0,0,0,53.58,80,4,4,0,0,1,51.44,79.1Z"/>
    <path class="cls-3" d="M46.44,95.1s10.5,3.5,13.75-7.25c0,0,5.25,11.25,12.25,8.25"/>
    <line class="cls-4" x1="76.44" y1="75.1" x2="116.44" y2="59.1"/>
    <line class="cls-4" x1="113.44" y1="81.1" x2="78.44" y2="81.1"/>
    <line class="cls-4" x1="74.44" y1="85.1" x2="111.44" y2="89.1"/>
    <line class="cls-4" x1="2.44" y1="66.1" x2="45.44" y2="78.1"/>
    <line class="cls-4" x1="43.44" y1="84.1" x2="9.44" y2="88.1"/>
    <line class="cls-4" x1="13.44" y1="96.1" x2="47.44" y2="88.1"/>
    <g>
      <path d="M54.44,42.1s2-5,3,0a6.93,6.93,0,0,1,0,5s-2,2-3,0,0-5,0-5"/>
      <path d="M17.61,56.52s-1.24-4.64,1.89-1.25A7.51,7.51,0,0,1,22,59.08s-.27,2.35-1.9,1.25-2.5-3.81-2.5-3.81"/>
      <path d="M49.09,36.31s3.2-3.58,2.09.9a7.51,7.51,0,0,1-1.81,4.18s-2.11,1.07-2.08-.9,1.8-4.18,1.8-4.18"/>
      <path d="M21.29,52.55s-1.51-3.79,1.49-1.25a6.33,6.33,0,0,1,2.5,3s0,2-1.48,1.25a7.15,7.15,0,0,1-2.51-3"/>
      <path d="M25,49.27s-1-3.1,1.42-1.2a4.09,4.09,0,0,1,1.94,2.3s-.16,1.71-1.41,1.19A4.6,4.6,0,0,1,25,49.27"/>
      <path d="M60.23,22.79s-.67-3.84,2-1.41a4.25,4.25,0,0,1,2,2.91s-.54,2.1-2,1.41-2-2.91-2-2.91"/>
      <path d="M63.59,40S64.76,36.3,66,39.7a4.26,4.26,0,0,1,.47,3.51s-1.45,1.63-2.45.33S63.59,40,63.59,40"/>
      <path d="M99.54,43.29s0-3.53,2.06-1A3.76,3.76,0,0,1,103,45.17s-.83,1.8-2.06,1-1.37-2.86-1.37-2.86"/>
      <path d="M98.36,47.87s2.68-1.22,1.88,1.29a2.46,2.46,0,0,1-1.43,2.09s-1.83,0-1.89-1.3,1.44-2.08,1.44-2.08"/>
      <path d="M31,60.93s2.12-1.3,1.71.88a2,2,0,0,1-1,1.88s-1.53.17-1.71-.88,1-1.88,1-1.88"/>
      <path d="M26.62,66.63s1.8-.69,1.71.89a1,1,0,0,1-.67,1.28s-1.4-.08-1.7-.88.66-1.29.66-1.29"/>
      <path d="M32.59,67.2s1.47-2,1.92.17a2,2,0,0,1-.19,2.11s-1.35.73-1.92-.17a2.27,2.27,0,0,1,.19-2.11"/>
      <path d="M100.33,53.39s3.84-.7,1.43,2a4.25,4.25,0,0,1-2.88,2.05s-2.11-.52-1.44-2,2.89-2,2.89-2"/>
      <path d="M96.33,31.39s3.84-.7,1.43,2a4.25,4.25,0,0,1-2.88,2.05s-2.11-.52-1.44-2,2.89-2,2.89-2"/>
      <path d="M90.66,58.8s0,3.91-2.24,1.06a4.28,4.28,0,0,1-1.51-3.21s.89-2,2.24-1,1.51,3.2,1.51,3.2"/>
      <path d="M93.66,52.8s0,3.91-2.24,1.06a4.28,4.28,0,0,1-1.51-3.21s.89-2,2.24-1,1.51,3.2,1.51,3.2"/>
      <path d="M81.48,27.23S79.85,22.28,83.32,26a9.08,9.08,0,0,1,2.85,4.1s-.08,2.49-1.84,1.27-2.85-4.1-2.85-4.1"/>
      <path d="M96.36,61.68s3.74-1.64,1.55,1.56a5.49,5.49,0,0,1-2.71,2.68s-2.11,0-1.55-1.57a6.16,6.16,0,0,1,2.71-2.67"/>
      <path d="M87.75,36.48s-.58-2.79,1.7-1.92a1.85,1.85,0,0,1,1.72,1.51S90.72,38,89.47,38s-1.72-1.52-1.72-1.52"/>
      <path d="M44.19,18.27s4.36-.36.68,1.74A7.79,7.79,0,0,1,41,21.53s-2-.55-.68-1.74a8.83,8.83,0,0,1,3.91-1.52"/>
      <path d="M60.56,7s2.69-.46,1.32,1.59a2.33,2.33,0,0,1-1.81,1.51s-1.61-.45-1.33-1.58S60.56,7,60.56,7"/>
      <path d="M71.46,24.58s-.8-3.42,1.83-1.56a3.47,3.47,0,0,1,2,2.38s-.41,2-1.83,1.56-2-2.38-2-2.38"/>
      <path d="M52.77,23.73s2.59-1.41,2.18,1.14A2.15,2.15,0,0,1,53.82,27s-1.91.11-2.19-1.14,1.14-2.17,1.14-2.17"/>
      <path d="M40.44,32.1s-1,5,3,3a12.38,12.38,0,0,0,2-3c1-2-1-3-3-2S40.44,32.1,40.44,32.1Z"/>
      <path d="M26.06,56.64S25,60.9,29.28,59.2a11.26,11.26,0,0,0,2.15-2.56c1.07-1.71-1.08-2.56-3.22-1.71S26.06,56.64,26.06,56.64Z"/>
      <path d="M92.93,46.75S97,48,95.67,44.9a10.43,10.43,0,0,0-2.31-1.74c-1.57-.91-2.57.43-1.91,2S92.93,46.75,92.93,46.75Z"/>
      <path d="M72,19.08s4.75,1.86,3.48-2.43a12.26,12.26,0,0,0-2.61-2.49c-1.79-1.34-3.12.46-2.49,2.6S72,19.08,72,19.08Z"/>
      <path d="M42,14.2s-.77,2.56,2,1.61a6.8,6.8,0,0,0,1.41-1.5c.71-1-.63-1.57-2-1.09S42,14.2,42,14.2Z"/>
      <path d="M50.44,17.1s-1,4,2,3a14.39,14.39,0,0,0,3-2s2-4-2-3Z"/>
      <path d="M49.21,5.6S47.77,8.11,50.51,8a13.67,13.67,0,0,0,2.88-.8s2.29-2.33-1.31-2.38Z"/>
      <path d="M26.11,41.08s-1.06,2.76,2.12,2.07a17.65,17.65,0,0,0,3.18-1.38s2.12-2.75-2.12-2.06Z"/>
      <path d="M72.74,8.09s-3.64.19-2.39,1.7a9.19,9.19,0,0,0,2.13,1.33s3.76.37,2.39-1.71Z"/>
      <path d="M73.74,3.09s-3.64.19-2.39,1.7a9.19,9.19,0,0,0,2.13,1.33s3.76.37,2.39-1.71Z"/>
      <path d="M67.41,12.2s-3-1.09-2.53.31a7.76,7.76,0,0,0,1.3,1.56s3,1.5,2.53-.31Z"/>
      <path d="M41.52,23.58S38.69,26.86,41,27a10.7,10.7,0,0,0,2.87-.74s3.42-2.91.53-3.45Z"/>
    </g>
  </g>
</svg>
