<svg id="Styletile" xmlns="http://www.w3.org/2000/svg" viewBox="0 0 367 88"><defs><style>.cls-1{fill:#0058ff;}.cls-2{fill:#3dff00;}.cls-3{fill:#f93;}.cls-4{fill:#ffef00;}.cls-5{fill:#f0d;}</style></defs><path class="cls-1" d="M221.88,84.76c-12.87,0-20.82-7.37-23.47-16.12-6.19,9.3-16.74,13.58-26.51,13.58a34.09,34.09,0,0,1-18.28-5,24.33,24.33,0,0,1-17,7.13,27,27,0,0,1-14.53-4,25,25,0,0,1-13.87,4,26.51,26.51,0,0,1-6.8-.86,20,20,0,0,1-2.89.21,27.43,27.43,0,0,1-14.82-4.83A26.1,26.1,0,0,1,69,83.39a27.5,27.5,0,0,1-6.29-.7,23.69,23.69,0,0,1-8.53,1.61,27,27,0,0,1-14.53-4,25,25,0,0,1-13.87,4C12.4,84.3,2.69,75.19,2.69,62.65c0-7.59,3.74-14.37,7-20.35a69.13,69.13,0,0,0,3.64-7.21,30,30,0,0,1-1.19-7.87c0-2.33.79-22.76,28-22.76A34.32,34.32,0,0,1,54.53,7.21,21.45,21.45,0,0,1,66.4,3.75a27.38,27.38,0,0,1,13.09,3.3A24.84,24.84,0,0,1,93.31,3,24,24,0,0,1,107.42,7.4a36,36,0,0,1,15.21-2.94c15.36,0,22.68,7.17,25.6,14.3,4.94-8.06,14.11-13.13,25.29-13.13a38.21,38.21,0,0,1,12.07,1.82A34.41,34.41,0,0,1,201.47,4a30.38,30.38,0,0,1,10.09,1.67,21.08,21.08,0,0,1,6.87-1.15,29.7,29.7,0,0,1,8.95,1.6,14,14,0,0,0,2.37.61,14.33,14.33,0,0,0,3-.51,30.87,30.87,0,0,1,7.44-1,20.23,20.23,0,0,1,3.3.28,29.17,29.17,0,0,1,9.18-1.38c8.91,0,16.12,3.42,20.27,9.4a36.43,36.43,0,0,1,23.73-8.68A35.24,35.24,0,0,1,307,6.35a28.86,28.86,0,0,1,12.88-2.73,30.43,30.43,0,0,1,10.54,1.76,31.58,31.58,0,0,1,9.81-1.44C357.34,3.94,365,14.88,365,25.72a31.86,31.86,0,0,1-5.26,17.34,34.53,34.53,0,0,1,4.8,17.83c0,13.34-10.33,23-24.58,23a26.11,26.11,0,0,1-10.73-2.22,26,26,0,0,1-10,1.9,27.89,27.89,0,0,1-12.67-2.85,35.82,35.82,0,0,1-13.85,3,33.18,33.18,0,0,1-22-8,23.3,23.3,0,0,1-17.89,7.72,26.33,26.33,0,0,1-14.52-3.95C234.17,83,228.55,84.76,221.88,84.76Z"/><path class="cls-2" d="M221.88,80.76c-14,0-20.45-9.73-20.45-18.76a31.73,31.73,0,0,1,.75-6.66c-.64,0-1.29.07-1.94.07l-.92,0c-2.64,15.73-15.27,22.83-27.42,22.83A29,29,0,0,1,153,71.75,20.24,20.24,0,0,1,136.6,80.3a22.28,22.28,0,0,1-14.57-5,20.67,20.67,0,0,1-13.83,5,22.37,22.37,0,0,1-6.58-1,16.15,16.15,0,0,1-3.11.3c-6.12,0-11.45-3.11-15-5.82A22,22,0,0,1,69,79.39a23.37,23.37,0,0,1-6.59-.91,19.81,19.81,0,0,1-8.23,1.82,22.28,22.28,0,0,1-14.57-5,20.67,20.67,0,0,1-13.83,5c-11.06,0-19.09-7.42-19.09-17.65,0-6.56,3.32-12.59,6.54-18.42,1.21-2.2,4-7.19,4.29-9.08l-.25-.94a26.76,26.76,0,0,1-1.09-7c0-3.13,1.16-18.76,24-18.76,6,0,10.91,1.16,14.73,3.47A17.17,17.17,0,0,1,66.4,7.75a23.57,23.57,0,0,1,13.35,4.13A20.38,20.38,0,0,1,93.31,7,19.58,19.58,0,0,1,107,12.19c4-2.48,9.24-3.73,15.68-3.73,22.59,0,23.24,16.49,23.24,18.37a25,25,0,0,1-1,6.5c-.08.33-.23.9-.29,1.21a21.54,21.54,0,0,0,1.47,5.59,18.1,18.1,0,0,0,2.19,4.08,14.15,14.15,0,0,1,1.43-1.82,27.77,27.77,0,0,1-1.41-9.06c0-13.73,10.62-23.7,25.26-23.7a33.1,33.1,0,0,1,12.42,2.2C190.08,9.29,195.29,8,201.47,8a25.68,25.68,0,0,1,10.09,2,17.31,17.31,0,0,1,6.87-1.44A25.54,25.54,0,0,1,226.21,10a13.81,13.81,0,0,0,3.53.78,17.08,17.08,0,0,0,3.95-.62,27.29,27.29,0,0,1,6.52-.94,16.18,16.18,0,0,1,3.61.41,24.74,24.74,0,0,1,8.87-1.51c9.72,0,16.7,4.57,19.16,12.07A32.56,32.56,0,0,1,296.69,8.79a31.69,31.69,0,0,1,10.65,1.9,23.94,23.94,0,0,1,12.49-3.07,25.85,25.85,0,0,1,10.46,2,26.54,26.54,0,0,1,9.89-1.72c15.38,0,20.84,9.58,20.84,17.78,0,7.57-3,12.45-4.93,15.69-.18.28-.63,1-.88,1.49a12,12,0,0,0,1,1.91,30.73,30.73,0,0,1,4.39,16.08c0,11-8.65,19-20.58,19a21.26,21.26,0,0,1-10.65-2.67,21.62,21.62,0,0,1-10.08,2.35,22.84,22.84,0,0,1-12.48-3.35,32.48,32.48,0,0,1-14,3.54,29.12,29.12,0,0,1-22.55-10.3c-3.1,6.15-9.37,10-17.3,10-6.14,0-11.25-1.86-14.82-5.27C234.56,78.43,229,80.76,221.88,80.76Z"/><path class="cls-3" d="M351.17,42.5c0-.6.37-1.32,1.5-3.17,1.83-3,4.35-7.16,4.35-13.61,0-6.66-4.43-13.78-16.84-13.78a20.92,20.92,0,0,0-10,2.16,20.47,20.47,0,0,0-10.38-2.48c-5.78,0-9.56,1.63-12,3.58a27.72,27.72,0,0,0-11.14-2.41c-19,0-30.81,17.54-30.81,33.8,0,1,.05,2,.14,2.95a28.61,28.61,0,0,1-.85-7.3,21.56,21.56,0,0,1,1.74-7.41,23.86,23.86,0,0,0,1.9-8.33c0-9-6-14.43-16.12-14.43a19.57,19.57,0,0,0-8.58,1.74,12.31,12.31,0,0,0-3.9-.64,23.75,23.75,0,0,0-5.61.83,20.37,20.37,0,0,1-4.86.73,16.51,16.51,0,0,1-4.69-1,22.07,22.07,0,0,0-6.62-1.26,13.27,13.27,0,0,0-6.81,1.9A21.26,21.26,0,0,0,201.47,12c-6.35,0-11.42,1.49-15.13,4.42a27.64,27.64,0,0,0-12.82-2.79c-12.32,0-21.26,8.29-21.26,19.7a22.1,22.1,0,0,0,2.2,10.14,13.41,13.41,0,0,0-5.24,9.2c-.8-1.29-1.69-2.54-2.57-3.77a30.18,30.18,0,0,1-4.35-7.4c-1.5-4.1-1.73-6.23-1.73-7.13a12.6,12.6,0,0,1,.43-2,21,21,0,0,0,.87-5.49c0-2.4-.93-14.37-19.24-14.37-8.5,0-13.41,2.36-16.25,5.26A15.24,15.24,0,0,0,93.31,11,16,16,0,0,0,80.2,17.27a20.44,20.44,0,0,0-13.8-5.52c-4.87,0-8.89,2.25-10.84,5.7-2.74-2.74-7.42-5-15.35-5-18.58,0-20,11.3-20,14.76a22.79,22.79,0,0,0,1,6c.14.54.38,1.46.41,1.7,0,2.53-2.78,7.58-4.82,11.27-3.11,5.63-6,11-6,16.49,0,8,6.2,13.65,15.09,13.65C32,76.3,37.1,73.42,39.55,69c2.75,4.79,8.72,7.26,14.63,7.26a15.83,15.83,0,0,0,7.92-2.17A18.16,18.16,0,0,0,69,75.39c5.44,0,11.17-2.63,14.19-7.2,1.87,1.85,8.13,7.46,15.32,7.46a12.19,12.19,0,0,0,3.31-.46,17.74,17.74,0,0,0,6.38,1.11c6.2,0,11.32-2.88,13.77-7.26,2.75,4.79,8.72,7.26,14.63,7.26,7.33,0,13.85-5.26,15.3-11.8,3.78,6,11,9.72,20,9.72,11.46,0,23-7.18,23.87-23.15a29.16,29.16,0,0,0,4.47.34,23.13,23.13,0,0,0,7-1c-.25,1.78-.56,3.16-.84,4.45a31.13,31.13,0,0,0-1,7.18c0,7.34,5.09,14.76,16.45,14.76,8.5,0,14-3.74,15.7-10.43,1.84,4.9,6.48,9.13,15.3,9.13,9.22,0,15.41-6.17,15.41-15.35,0-.54,0-1-.07-1.55,3.89,9.6,12.46,17.22,24.51,17.22a29.28,29.28,0,0,0,14.39-4.28c2.94,2.63,7.16,4.09,12.13,4.09a16.68,16.68,0,0,0,10.16-3.12A16.65,16.65,0,0,0,340,75.91c9.76,0,16.58-6.17,16.58-15a26.81,26.81,0,0,0-3.9-14.16C351.52,44.67,351.17,43.94,351.17,42.5ZM59.37,40.06a19.21,19.21,0,0,1-1.22-5.69,11.64,11.64,0,0,1,.42-2A14.47,14.47,0,0,1,58.9,34a34.31,34.31,0,0,1,.48,5.51C59.38,39.69,59.38,39.88,59.37,40.06ZM307.6,42.88a16.26,16.26,0,0,0-6.76,2.82c-.42.26-1.06.65-1.62,1a8.16,8.16,0,0,1-.51-3.06c0-2.83,1.47-5.61,2.31-6.16a13.11,13.11,0,0,1,2.18.57,18.92,18.92,0,0,0,4.05.93,13,13,0,0,1,.36,3.43C307.61,42.55,307.6,42.72,307.6,42.88Z"/><path class="cls-4" d="M138.54,42.88a26.68,26.68,0,0,1-2-8.51,12.78,12.78,0,0,1,.56-3,17.56,17.56,0,0,0,.74-4.49c0-2.43-1.1-10.37-15.24-10.37-14.47,0-16,7.52-16,10.76a19.25,19.25,0,0,0,.83,5,13.47,13.47,0,0,1,.54,2.72c0,3.56-2.82,8.68-5.31,13.2l-.43.77a93.09,93.09,0,0,1,1.69-13.69A49.23,49.23,0,0,0,105,26.83c0-7-4.8-11.87-11.67-11.87-6.3,0-11,3.92-11.86,9.55C77,18.63,72,15.75,66.4,15.75c-4.69,0-8.09,2.74-8.09,6.53a8.43,8.43,0,0,0,2.12,5.25,10.94,10.94,0,0,1,2.42,5.81,39.06,39.06,0,0,1,.53,6.17c0,7-1.39,10-2.37,11.76l0,0a34.16,34.16,0,0,1-4.86-8.36,26.74,26.74,0,0,1-2-8.51,12.78,12.78,0,0,1,.56-3,17.56,17.56,0,0,0,.74-4.49c0-2.43-1.1-10.37-15.24-10.37-14.47,0-16,7.52-16,10.76a19.25,19.25,0,0,0,.83,5,13.47,13.47,0,0,1,.54,2.72c0,3.56-2.82,8.68-5.31,13.2-2.86,5.17-5.55,10.06-5.55,14.56,0,5.77,4.46,9.65,11.09,9.65,6.46,0,11.34-4,11.34-9.33a10.31,10.31,0,0,0-.41-2.64,5.08,5.08,0,0,1-.24-1.26c0-.55,1.42-.94,2.7-.94,2.08,0,3.21.75,3.21,1.14a10.26,10.26,0,0,1-.14,1.23A14.59,14.59,0,0,0,42,63c0,6.13,6.13,9.33,12.19,9.33a12.14,12.14,0,0,0,7.63-2.81A13,13,0,0,0,69,71.39c5.93,0,12.32-4,12.32-10.37a13.29,13.29,0,0,0-.44-3.45,28.61,28.61,0,0,0,5.05,7.71c3.08,3.08,8,6.37,12.58,6.37a7.68,7.68,0,0,0,3.44-.79,13.11,13.11,0,0,0,6.25,1.44c6.46,0,11.34-4,11.34-9.33a10.31,10.31,0,0,0-.41-2.64,5.08,5.08,0,0,1-.24-1.26c0-.55,1.42-.94,2.7-.94,2.08,0,3.21.75,3.21,1.14a10.26,10.26,0,0,1-.14,1.23,14.59,14.59,0,0,0-.25,2.47c0,6.13,6.13,9.33,12.19,9.33s11.61-5,11.61-10.5c0-3.86-2.34-7.12-4.81-10.56A33.85,33.85,0,0,1,138.54,42.88ZM39.21,44.5a1.49,1.49,0,0,1-.14-.57,3.93,3.93,0,0,1,.28-1.47,4.7,4.7,0,0,1,.11.95A2.25,2.25,0,0,1,39.21,44.5Zm38.67,6.88c-1.39-2.21-2.62-4.17-3-7.11a71.59,71.59,0,0,1,3.31,7.18l.57,1.36C78.47,52.32,78.17,51.85,77.88,51.38Zm43.75-6.88a1.49,1.49,0,0,1-.14-.57,3.93,3.93,0,0,1,.28-1.47,5.55,5.55,0,0,1,.11.95A2.25,2.25,0,0,1,121.63,44.5Z"/><path class="cls-4" d="M264.81,26.5c0-4.76-2.1-10.43-12.12-10.43-3.83,0-6.47.89-8.31,2.21a8.48,8.48,0,0,0-4.17-1.11,20.35,20.35,0,0,0-4.69.73,24.22,24.22,0,0,1-5.78.83,19.67,19.67,0,0,1-5.86-1.13,18.71,18.71,0,0,0-5.45-1.08,9.38,9.38,0,0,0-6.61,2.8A16.4,16.4,0,0,0,201.47,16c-7.49,0-12,2.29-14.63,5.51-3-2.47-7.63-3.88-13.32-3.88-10.16,0-17.26,6.46-17.26,15.7,0,6.68,2.45,10.23,5,12.39a5.82,5.82,0,0,0-.95-.07c-4.54,0-7.25,4.57-7.25,9,0,9.17,7.73,15.57,18.82,15.57,9.19,0,19.92-5.51,19.92-21a21.18,21.18,0,0,0-.29-3.5,20.5,20.5,0,0,0,8.71,1.72,17.23,17.23,0,0,0,11.5-4,54.71,54.71,0,0,1-1.45,12.27,27.73,27.73,0,0,0-.86,6.32c0,5.2,3.27,10.76,12.45,10.76,8.13,0,12.25-3.76,12.25-11.15,0-4.83-3-7.46-5.07-9.07h.16a16.74,16.74,0,0,1,3.42.65,22.43,22.43,0,0,0,5.49.91,8.9,8.9,0,0,0,4.46-1.16,18.63,18.63,0,0,0-2,8c0,2.46.88,10.5,12.25,10.5,7,0,11.41-4.35,11.41-11.35A21.51,21.51,0,0,0,263,53.48a33.26,33.26,0,0,1-1.83-11.24,25,25,0,0,1,2-8.78A20.49,20.49,0,0,0,264.81,26.5Zm-99.62,22-.23-.3a6.51,6.51,0,0,1,1.83,1.25A1.69,1.69,0,0,1,165.19,48.45ZM229,36.82a1.21,1.21,0,0,1-.22-.37.67.67,0,0,1,.4-.16,4.11,4.11,0,0,1,1.33.34A9.55,9.55,0,0,1,229,36.82Z"/><path class="cls-4" d="M347.17,42.5c0-1.73.75-3.06,2.08-5.25,1.68-2.76,3.77-6.2,3.77-11.53,0-2.94-1.25-9.78-12.84-9.78-4.9,0-8.12,1.28-10.07,3.12-2.07-2.18-5.67-3.44-10.28-3.44-6.23,0-9.51,2.12-11.23,4.52a23.39,23.39,0,0,0-11.91-3.35c-16.56,0-26.81,15.47-26.81,29.8,0,12.38,8.54,25.19,22.85,25.19a26.14,26.14,0,0,0,15.15-5.65c1.85,3.38,6,5.46,11.37,5.46,4.77,0,8.46-2,10.28-5.18,1.7,3.37,5.53,5.5,10.45,5.5,7.53,0,12.58-4.43,12.58-11a23,23,0,0,0-3.41-12.24C348,46.55,347.17,45,347.17,42.5Zm-48.72,8.61c-1.53,0-3.74-2.68-3.74-7.51,0-4.61,2.74-10.17,6.14-10.17a12.63,12.63,0,0,1,3.56.76,12.59,12.59,0,0,0,3.85.8,5.92,5.92,0,0,0,1.47-.19c1,1.71,1.88,3.49,1.88,7.57a15.43,15.43,0,0,1-.68,4.88,5.53,5.53,0,0,0-2.15-.43c-2.13,0-3.93,1.11-5.84,2.28C301.42,50,299.69,51.11,298.45,51.11Zm32.07,3.81-.57,1.4c-.33-1.12-.71-2.18-1.06-3.14a23.78,23.78,0,0,1-.77-2.38c0-1.57.47-2,2-2,1.67,0,1.85,1,1.85,1.46A15.08,15.08,0,0,1,330.52,54.92Zm-1.59-19.8a7.62,7.62,0,0,1-1.39-.1v-.19c0-.77.15-1,1.12-2.14A19.11,19.11,0,0,0,330,31.07l.68,1a17.81,17.81,0,0,1,1.5,2.51A7.36,7.36,0,0,1,328.93,35.12Z"/><path class="cls-5" d="M51.45,26.83c0,2.34-1.3,4.81-1.3,7.54a30.78,30.78,0,0,0,2.21,9.88C55,51.86,61.79,56.93,61.79,61.8c0,3.25-3.64,6.5-7.61,6.5C51.06,68.3,46,67,46,63c0-1.23.39-2.47.39-3.7,0-3-2.92-5.14-7.21-5.14-3.64,0-6.7,1.69-6.7,4.94,0,1.63.65,2.73.65,3.9,0,3.32-3.51,5.33-7.34,5.33-4.42,0-7.09-2.21-7.09-5.65,0-7.28,10.86-19,10.86-27.76,0-2.4-1.37-5.14-1.37-7.67,0-3.44,2.67-6.76,12-6.76C48.46,20.46,51.45,23.45,51.45,26.83ZM39.82,37.29c-2.08,0-4.75,2.8-4.75,6.64,0,2,1.3,4.68,4.23,4.68,2.47,0,4.16-2.41,4.16-5.2C43.46,41.52,42.48,37.29,39.82,37.29Z"/><path class="cls-5" d="M93.31,19c5,0,7.67,3.38,7.67,7.87,0,5.2-2.79,13-2.79,24.38,0,10.33,3,12.54,3,14.69,0,1-1.36,1.75-2.73,1.75-2.79,0-6.69-2.14-9.75-5.2-6.43-6.5-9-24.05-15.08-24.05-2.14,0-2.92,2-2.92,3.9,0,9.62,6.56,12.09,6.56,18.72,0,4.1-4.61,6.37-8.32,6.37-5.13,0-7.47-2.79-7.47-5.65,0-2.67,1.43-5.66,2.79-8.19,1.24-2.21,3.06-5.72,3.06-14a42.13,42.13,0,0,0-.59-6.83c-1-7-4.48-7.73-4.48-10.4,0-1.63,1.88-2.53,4.09-2.53,6.31,0,12.68,5.13,18.79,19.89,1.43,3.44,2.73,8.19,6.24,8.19,1.56,0,2.66-1.37,2.66-4.68,0-7.15-8.77-8.58-8.77-16.84C85.32,21.56,89,19,93.31,19Z"/><path class="cls-5" d="M133.87,26.83c0,2.34-1.3,4.81-1.3,7.54a30.78,30.78,0,0,0,2.21,9.88c2.67,7.61,9.43,12.68,9.43,17.55,0,3.25-3.64,6.5-7.61,6.5-3.12,0-8.19-1.3-8.19-5.33,0-1.23.39-2.47.39-3.7,0-3-2.92-5.14-7.21-5.14-3.64,0-6.7,1.69-6.7,4.94,0,1.63.65,2.73.65,3.9,0,3.32-3.51,5.33-7.34,5.33-4.42,0-7.09-2.21-7.09-5.65,0-7.28,10.86-19,10.86-27.76,0-2.4-1.37-5.14-1.37-7.67,0-3.44,2.67-6.76,12-6.76C130.88,20.46,133.87,23.45,133.87,26.83ZM122.24,37.29c-2.08,0-4.75,2.8-4.75,6.64,0,2,1.3,4.68,4.23,4.68,2.47,0,4.16-2.41,4.16-5.2C125.88,41.52,124.9,37.29,122.24,37.29Z"/><path class="cls-5" d="M186.91,30a2.47,2.47,0,0,1-2.27,2.73c-3,0-1.63-4.81-8.45-4.81a3,3,0,0,0-3.25,2.8c0,6.17,14.88,4.74,14.88,18.52,0,12.55-8,17-15.92,17-9.43,0-14.82-5.07-14.82-11.57,0-2.21,1.17-5,3.25-5s1.49,3.77,7,3.77A3.34,3.34,0,0,0,170.92,50c0-7.15-10.66-3.51-10.66-16.64,0-6.37,4.75-11.7,13.26-11.7C180.61,21.63,186.91,24.1,186.91,30Z"/><path class="cls-5" d="M213.24,31.45c0,5.13-4,12-13,12-9.76,0-12.75-5.53-12.75-10.92,0-8.65,4.49-12.49,14-12.49C208.43,20,213.24,24.17,213.24,31.45Zm-13.85,3.38c0,1.88,1,3.7,3.19,3.7,3,0,4.42-1.88,4.42-3.83a3.77,3.77,0,0,0-4-3.91C200.5,30.79,199.39,32.81,199.39,34.83Z"/><path class="cls-5" d="M218.43,20.52c3,0,6.44,2.21,11.31,2.21,4.68,0,7.8-1.56,10.47-1.56,2.14,0,4.68,1.5,4.68,5.66,0,3.84-2.47,8.32-6.44,8.32-3.12,0-6.11-2.86-9.23-2.86a4.32,4.32,0,0,0-4.42,4.1,4.43,4.43,0,0,0,4.29,4.42c2.6,0,6.11-1.43,8.91-1.43s4.74,1.88,4.74,5.13c0,4.1-2.08,5.59-4.61,5.59-2.8,0-6.18-1.56-8.91-1.56-4.81,0-5.59,1.76-5.59,3.45,0,3.25,6.5,4,6.5,9.62,0,3.51-.65,7.15-8.25,7.15-5.59,0-8.45-2.54-8.45-6.76,0-5.14,2.34-7.48,2.34-20.74,0-10.34-2.8-10.47-2.8-15.21A5.64,5.64,0,0,1,218.43,20.52Z"/><path class="cls-5" d="M260.81,26.5c0,3.91-3.64,8.71-3.64,15.74,0,10.07,3.12,13.26,3.12,17.87,0,4-1.82,7.35-7.41,7.35-6,0-8.25-2.54-8.25-6.5,0-5.72,3.7-7.8,3.7-14.89,0-12.54-3.9-14-3.9-19,0-4.36,2-7,8.26-7S260.81,22.34,260.81,26.5Z"/><path class="cls-5" d="M273.88,46.59c0-12,8.45-25.8,22.81-25.8,4.94,0,13.33,2.66,13.33,8.18a1.82,1.82,0,0,1-1.76,2c-1.69,0-4.35-1.56-7.41-1.56-6.3,0-10.14,7.93-10.14,14.17,0,6.83,3.58,11.51,7.74,11.51s8-4.29,10.33-4.29c1.3,0,2,1.49,2,2.66,0,8.65-11.38,14.3-18.07,14.3C281,67.78,273.88,57.19,273.88,46.59Z"/><path class="cls-5" d="M340.18,19.94c5.33,0,8.84,1.62,8.84,5.78,0,7.94-5.85,10.54-5.85,16.78,0,7.54,5.39,9,5.39,18.39,0,4.94-4.09,7-8.58,7s-7.41-2.4-7.41-5.65c0-3.71,3.38-8.06,3.38-12a5.49,5.49,0,0,0-5.85-5.46c-3.44,0-6,1.95-6,6.11,0,2,2.67,6.63,2.67,10.53s-2.93,6.18-7.54,6.18-8.45-2-8.45-5.79c0-9.62,4.81-9.75,4.81-19.43,0-10.21-4.88-10-4.88-16.19,0-4.75,3.77-6.56,9.1-6.56,4.42,0,8.26,1.42,8.26,4.42,0,6-4.55,5.91-4.55,10.79,0,3.51,2.14,4.29,5.39,4.29,5.4,0,7.28-2.15,7.28-4.23,0-3.31-4.55-6.76-4.55-10.14C331.66,20.72,337,19.94,340.18,19.94Z"/></svg>